<?xml version="1.0" standalone="no"?><!DOCTYPE svg PUBLIC "-//W3C//DTD SVG 1.1//EN" "http://www.w3.org/Graphics/SVG/1.1/DTD/svg11.dtd"><svg t="1709912329286" class="icon" viewBox="0 0 1024 1024" version="1.1" xmlns="http://www.w3.org/2000/svg" p-id="6704" xmlns:xlink="http://www.w3.org/1999/xlink" width="200" height="200"><path d="M350.334 1024c-93.643 0-181.663-36.448-247.844-102.629-136.625-136.8-136.619-359.229 0-495.848 66.181-66.181 154.201-102.629 247.844-102.629 55.7 0 110.859 13.74 160.967 39.925L833.41 40.711c43.51-43.51 114.307-43.522 157.834-0.029l0 0c21.122 21.068 32.755 49.096 32.756 78.92 0 29.824-11.633 57.852-32.755 78.921l-76.494 76.493 76.522 76.522c43.522 43.523 43.522 114.34 0.001 157.863-21.093 21.092-49.125 32.707-78.933 32.707-29.809 0-57.841-11.615-78.932-32.706l-76.522-76.522-90.886 90.886c23.087 47.813 34.812 97.988 34.886 149.477 0.087 93.694-36.39 181.81-102.71 248.129C531.996 987.552 443.977 1024 350.334 1024zM350.334 386.894c-76.548 0-148.496 29.791-202.589 83.884C36.064 582.459 36.07 764.299 147.759 876.13 201.838 930.209 273.786 960 350.334 960s148.496-29.791 202.59-83.884c54.216-54.216 84.035-126.237 83.964-202.799-0.069-48.215-12.854-95.27-37.999-139.84l-11.942-21.167L756.888 342.37l121.777 121.777c9.003 9.003 20.963 13.961 33.677 13.961 12.713 0 24.674-4.958 33.678-13.962 18.568-18.569 18.568-48.784-0.001-67.354L824.241 275.017 946.02 153.24c9.025-9.003 13.98-20.939 13.98-33.637s-4.956-24.633-13.953-33.607l-0.028-0.029c-18.569-18.568-48.784-18.569-67.354 0L521.44 443.19l-21.533-13.272C454.243 401.771 402.521 386.894 350.334 386.894zM350.222 863.15c-51.316 0-100.555-19.785-135.109-54.293-74.568-74.759-74.555-196.187-0.015-270.726 36.087-36.088 84.115-55.962 135.236-55.962s99.148 19.874 135.236 55.962c36.138 36.138 56.041 84.194 56.041 135.315 0 51.218-19.913 99.284-56.071 135.345-34.612 34.521-83.898 54.334-135.22 54.358C350.288 863.15 350.254 863.15 350.222 863.15zM350.334 546.17c-34.026 0-65.981 13.217-89.981 37.216-49.618 49.618-49.605 130.47 0.029 180.23 47.844 47.78 131.96 47.736 179.963-0.139l0 0c24.031-23.967 37.265-55.94 37.265-90.03 0-34.026-13.245-66.011-37.295-90.062C416.316 559.387 384.36 546.17 350.334 546.17z" p-id="6705"></path></svg>