<?xml version="1.0" standalone="no"?><!DOCTYPE svg PUBLIC "-//W3C//DTD SVG 1.1//EN" "http://www.w3.org/Graphics/SVG/1.1/DTD/svg11.dtd"><svg t="1641089960153" class="icon" viewBox="0 0 1024 1024" version="1.1" xmlns="http://www.w3.org/2000/svg" p-id="8792" xmlns:xlink="http://www.w3.org/1999/xlink" width="200" height="200"><defs><style type="text/css"></style></defs><path d="M798.506667 299.946667h-167.893334v-3.413334l-1.493333-122.88a121.386667 121.386667 0 0 0-101.333333-126.08 106.666667 106.666667 0 0 0-84.053334 27.306667A128 128 0 0 0 401.493333 170.666667l1.706667 128v2.346666h-177.706667a113.28 113.28 0 0 0-108.586666 114.986667v1.28a117.546667 117.546667 0 0 0 68.906666 107.946667l-32.853333 377.6A73.173333 73.173333 0 0 0 170.666667 958.72a62.293333 62.293333 0 0 0 46.293333 21.333333H806.4a62.293333 62.293333 0 0 0 46.293333-21.333333 73.173333 73.173333 0 0 0 18.346667-55.893333l-32.853333-377.6a117.546667 117.546667 0 0 0 68.906666-107.946667v-1.28a113.28 113.28 0 0 0-108.586666-116.053333z m7.893333 615.466666h-111.786667V795.733333a32 32 0 0 0-64 0v119.893334h-92.586666V699.733333a32 32 0 0 0-64 0v215.893334h-85.333334V795.733333a32 32 0 0 0-64 0v120.106667h-105.813333a9.173333 9.173333 0 0 1-2.133333-7.466667L249.386667 533.333333h525.226666l32.64 375.04c0.426667 4.266667-1.493333 7.04-0.853333 7.04zM798.506667 469.333333H225.493333a50.133333 50.133333 0 0 1-44.586666-52.693333 50.133333 50.133333 0 0 1 44.586666-52.693333H405.333333a64 64 0 0 0 62.933334-66.773334l-1.706667-128a62.506667 62.506667 0 0 1 19.84-46.72 42.666667 42.666667 0 0 1 34.133333-11.52 60.16 60.16 0 0 1 44.586667 62.933334l0.426667 124.8a64 64 0 0 0 62.933333 66.346666h170.666667a50.133333 50.133333 0 0 1 44.586666 52.693334A50.133333 50.133333 0 0 1 798.506667 469.333333z" p-id="8793"></path></svg>