<?xml version="1.0" standalone="no"?><!DOCTYPE svg PUBLIC "-//W3C//DTD SVG 1.1//EN" "http://www.w3.org/Graphics/SVG/1.1/DTD/svg11.dtd"><svg t="1616408789467" class="icon" viewBox="0 0 1024 1024" version="1.1" xmlns="http://www.w3.org/2000/svg" p-id="4150" xmlns:xlink="http://www.w3.org/1999/xlink" width="200" height="200"><defs><style type="text/css"></style></defs><path d="M936.96 122.88H668.57472V87.04c0-28.27776-22.92224-51.2-51.2-51.2h-211.07968c-28.27776 0-51.2 22.92224-51.2 51.2v35.84H86.7072c-28.27776 0-51.2 22.92224-51.2 51.2s22.92224 51.2 51.2 51.2H936.96c28.27776 0 51.2-22.92224 51.2-51.2s-22.92224-51.2-51.2-51.2zM803.84 284.16H223.1936c-42.24 0-76.8 34.56-76.8 76.8v547.84c0 42.24 34.56 76.8 76.8 76.8H803.84c42.24 0 76.8-34.56 76.8-76.8V360.96c0-42.24-34.56-76.8-76.8-76.8zM448 739.84c0 29.568-24.192 53.76-53.76 53.76s-53.76-24.192-53.76-53.76V483.84c0-29.568 24.192-53.76 53.76-53.76s53.76 24.192 53.76 53.76v256z m235.52 0c0 29.568-24.192 53.76-53.76 53.76s-53.76-24.192-53.76-53.76V483.84c0-29.568 24.192-53.76 53.76-53.76s53.76 24.192 53.76 53.76v256z" p-id="4151"></path></svg>