<?xml version="1.0" standalone="no"?><!DOCTYPE svg PUBLIC "-//W3C//DTD SVG 1.1//EN" "http://www.w3.org/Graphics/SVG/1.1/DTD/svg11.dtd"><svg t="1713540071359" class="icon" viewBox="0 0 1024 1024" version="1.1" xmlns="http://www.w3.org/2000/svg" p-id="1352" xmlns:xlink="http://www.w3.org/1999/xlink" width="200" height="200"><path d="M613.50798222 26.54814777a48.54518557 48.54518557 0 0 1 34.68553444 14.5878289l238.30831445 243.45410333a48.54518557 48.54518557 0 0 1 13.85964999 33.98163001V900.3614811a97.09036999 97.09036999 0 0 1-97.09036999 97.09037113H220.72888889a97.09036999 97.09036999 0 0 1-97.09036999-97.09037113V123.6385189a97.09036999 97.09036999 0 0 1 97.09036999-97.09037113h392.77909333z m-40.48668444 72.81777778H220.72888889a24.27259221 24.27259221 0 0 0-24.27259222 24.27259335v776.7229622a24.27259221 24.27259221 0 0 0 24.27259222 24.27259335h582.54222222a24.27259221 24.27259221 0 0 0 24.27259222-24.27259335V379.3502811h-218.08924445a36.40888889 36.40888889 0 0 1-36.40888889-36.40888889L573.02129778 99.36592555z m72.81777777 43.44794112v163.71863666h160.22338333L645.83907555 142.81386667z" p-id="1353"></path><path d="M366.75280555 839.68l-3.49525334-0.12136334a36.40888889 36.40888889 0 0 1-33.18063331-39.39441778l25.00076999-291.27111111c3.13116445-36.70016 52.52588999-46.06938112 68.88561778-13.05865444l87.93960334 177.50547001 89.66295666-177.74819555c16.01991111-31.77282333 62.67183445-23.78714112 68.35162112 10.00030776l0.43690666 3.47098112 23.56868665 291.27111112a36.40888889 36.40888889 0 0 1-72.57505109 5.87396664l-13.13147335-162.18946332-64.10391666 127.11556779c-12.98583666 25.72894777-48.78791111 26.6027611-63.42428445 2.86416555l-1.6990811-3.10689224-62.47765333-126.09611776-13.85965113 161.58264889a36.40888889 36.40888889 0 0 1-35.89916444 33.30199666z" p-id="1354"></path></svg>