<?xml version="1.0" standalone="no"?><!DOCTYPE svg PUBLIC "-//W3C//DTD SVG 1.1//EN" "http://www.w3.org/Graphics/SVG/1.1/DTD/svg11.dtd"><svg t="1710032235677" class="icon" viewBox="0 0 1024 1024" version="1.1" xmlns="http://www.w3.org/2000/svg" p-id="9879" xmlns:xlink="http://www.w3.org/1999/xlink" width="200" height="200"><path d="M67.498667 846.762667c0 9.813333 3.072 17.706667 9.216 23.637333 6.144 5.973333 14.250667 8.917333 24.32 8.917333h780.970666a38.741333 38.741333 0 0 0 27.477334-10.666666 35.114667 35.114667 0 0 0 11.349333-26.752 35.370667 35.370667 0 0 0-11.349333-26.752 38.4 38.4 0 0 0-27.477334-10.752H154.922667c-7.210667 0-10.794667-3.541333-10.794667-10.581334V191.786667a36.736 36.736 0 0 0-10.965333-26.624 36.522667 36.522667 0 0 0-27.136-11.178667 36.992 36.992 0 0 0-27.562667 11.178667 36.736 36.736 0 0 0-10.965333 26.666666v654.933334z m70.272-208.896l166.912-168.234667c3.285333-3.456 6.698667-5.205333 10.24-5.205333 3.584 0 6.997333 1.706667 10.24 5.205333l139.221333 141.269333c8.832 9.301333 17.92 16.085333 27.349333 20.394667 9.386667 4.266667 18.986667 6.4 28.714667 6.4 19.2 0 37.973333-8.874667 56.32-26.709333l160.085333-158.037334 61.013334 60.288c5.546667 5.461333 11.52 8.234667 17.792 8.234667 6.272 0 12.032-2.133333 17.194666-6.528a35.072 35.072 0 0 0 10.922667-18.261333l58.709333-225.194667a25.728 25.728 0 0 0-1.706666-19.285333 29.013333 29.013333 0 0 0-13.568-12.928 27.733333 27.733333 0 0 0-19.456-1.578667l-229.12 57.173333a36.864 36.864 0 0 0-18.645334 10.709334 24.533333 24.533333 0 0 0-6.698666 16.810666c0.042667 6.186667 2.858667 11.989333 8.533333 17.493334l60.672 59.733333-151.424 151.338667c-3.413333 3.498667-6.954667 5.248-10.581333 5.248-3.370667 0-6.784-1.792-10.24-5.290667L371.072 409.6a94.933333 94.933333 0 0 0-27.562667-20.352c-9.301333-4.266667-18.773333-6.4-28.501333-6.4-9.685333 0-19.072 2.090667-28.202667 6.229333a95.701333 95.701333 0 0 0-27.818666 20.48l-175.701334 175.146667 54.485334 53.12z" p-id="9880"></path></svg>