<?xml version="1.0" standalone="no"?><!DOCTYPE svg PUBLIC "-//W3C//DTD SVG 1.1//EN" "http://www.w3.org/Graphics/SVG/1.1/DTD/svg11.dtd"><svg t="1628235422218" class="icon" viewBox="0 0 1024 1024" version="1.1" xmlns="http://www.w3.org/2000/svg" p-id="2825" xmlns:xlink="http://www.w3.org/1999/xlink" width="200" height="200"><defs><style type="text/css"></style></defs><path d="M1024 518.32C1024 794.776 794.776 1024 505.68 1024 229.224 1024 0 794.776 0 518.32 0 229.224 229.224 0 505.68 0 794.776 0 1024 229.224 1024 518.32z m-764.504 27.552L424.2 716.56a7.896 7.896 0 0 0 11.248 0.136L796.6 360.8a7.92 7.92 0 0 0-0.024-11.28l-18.232-18.024a8.936 8.936 0 0 0-11.816-0.576l-330.672 275.84c-3.336 2.784-8.952 2.896-12.472 0.192L290 504.584a7.792 7.792 0 0 0-11.144 1.6l-20.136 27.44c-2.64 3.584-2.28 9.072 0.784 12.248z" p-id="2826"></path></svg>