<?xml version="1.0" standalone="no"?><!DOCTYPE svg PUBLIC "-//W3C//DTD SVG 1.1//EN" "http://www.w3.org/Graphics/SVG/1.1/DTD/svg11.dtd"><svg t="1714406850245" class="icon" viewBox="0 0 1024 1024" version="1.1" xmlns="http://www.w3.org/2000/svg" p-id="1412" xmlns:xlink="http://www.w3.org/1999/xlink" width="200" height="200"><path d="M945.67032149 363.12809927c0 25.89076594-19.41807445 45.30883925-45.30884039 45.30883926h-194.18073998c-25.89076594 0-45.30883925-19.41807445-45.30884039-45.30883926 0-25.89076594 19.41807445-45.30883925 45.30884039-45.30884039h90.61767851l-45.30883926-45.30883925c-64.72691371-64.72691371-148.87190073-103.56306147-239.48958037-103.56306148-97.09036999 0-174.76266667 32.36345629-239.48958037 103.56306148-64.72691371 64.72691371-103.56306147 148.87190073-103.56306148 239.48958037 0 97.09036999 32.36345629 174.76266667 103.56306148 239.48958037 64.72691371 64.72691371 148.87190073 103.56306147 239.48958037 103.56306148 97.09036999 0 174.76266667-32.36345629 239.48958037-103.56306148 6.47269149-6.47269149 19.41807445-12.94538297 32.36345629-12.94538296 25.89076594 0 45.30883925 19.41807445 45.30884039 45.30883925 0 12.94538297-6.47269149 25.89076594-12.94538297 32.36345742-84.14498816 84.14498816-187.70804963 129.45382741-304.21649408 129.45382741-122.98113593 0-220.07150592-45.30883925-304.21649408-129.45382741-84.14498816-84.14498816-129.45382741-187.70804963-129.45382741-304.21649408s45.30883925-220.07150592 129.45382741-304.21649408 187.70804963-129.45382741 304.21649408-129.45382741c122.98113593 0 220.07150592 45.30883925 304.21649408 129.45382741l38.83614777 38.83614891V168.94735815c0-25.89076594 19.41807445-45.30883925 45.30883925-45.30883925 25.89076594 0 45.30883925 19.41807445 45.30884039 45.30883925v194.18074112z" p-id="1413"></path></svg>