<?xml version="1.0" standalone="no"?><!DOCTYPE svg PUBLIC "-//W3C//DTD SVG 1.1//EN" "http://www.w3.org/Graphics/SVG/1.1/DTD/svg11.dtd"><svg t="1616045570209" class="icon" viewBox="0 0 1024 1024" version="1.1" xmlns="http://www.w3.org/2000/svg" p-id="2064" xmlns:xlink="http://www.w3.org/1999/xlink" width="200" height="200"><defs><style type="text/css"></style></defs><path d="M1024.045786 585.142857V438.857143a24.380952 24.380952 0 0 0-24.426738-24.403845h-57.40398c-29.577644 0-56.682853-17.638989-67.534093-45.167718q-2.541113-6.478694-5.311156-12.831478c-11.801297-27.139548-5.196691-58.743215 15.727431-79.667337l35.644266-35.644266c14.628571-14.628571 14.525553-29.955377 5.002101-39.478828l-103.441627-103.441628a24.380952 24.380952 0 0 0-34.476727 0l-40.623474 40.623475c-20.924123 20.924123-52.550682 27.563067-79.690231 15.76177q-6.352783-2.770042-12.831478-5.311156c-27.471496-10.816901-45.167717-37.876325-45.167717-67.453968v-50.364409c0-20.695193-10.91992-31.454863-24.380952-31.454862H438.902929a24.380952 24.380952 0 0 0-24.380953 24.380952v57.449766c0 29.577644-17.638989 56.682853-45.167717 67.534093q-6.478694 2.541113-12.831478 5.311156c-27.139548 11.801297-58.766108 5.173798-79.69023-15.761771l-40.623474-40.623474a24.380952 24.380952 0 0 0-34.476727 0l-103.441628 103.441628a24.380952 24.380952 0 0 0 0 34.476727l40.623474 40.623474c20.924123 20.924123 27.563067 52.550682 15.761771 79.69023q-2.770042 6.352783-5.311156 12.831478c-10.816901 27.471496-37.910664 45.167717-67.534093 45.167717H24.380952a24.380952 24.380952 0 0 0-24.380952 24.380953v146.285714a24.380952 24.380952 0 0 0 24.380952 24.312274h57.449766c29.577644 0 56.682853 17.638989 67.534093 45.167717q2.541113 6.478694 5.311156 12.831478c11.801297 27.139548 5.173798 58.766108-15.761771 79.69023l-40.623474 40.623474a24.380952 24.380952 0 0 0 0 34.476727l103.441628 103.441628a24.380952 24.380952 0 0 0 34.476727 0l40.623474-40.623474c20.924123-20.924123 52.550682-27.563067 79.69023-15.761771q6.352783 2.770042 12.831478 5.311156c27.471496 10.816901 45.167717 37.876325 45.167717 67.453968v50.364409c0 20.695193 10.91992 31.454863 24.380953 31.454862h146.285714a24.380952 24.380952 0 0 0 24.380952-24.380952v-57.438319c0-29.577644 17.638989-56.682853 45.167718-67.534093q6.478694-2.541113 12.831478-5.311156c27.139548-11.801297 58.766108-5.173798 79.69023 15.76177l40.600581 40.715046a24.380952 24.380952 0 0 0 34.476727 0l103.441628-103.441627a24.380952 24.380952 0 0 0 0-34.476727l-40.623475-40.634921c-20.924123-20.924123-27.563067-52.550682-15.76177-79.69023q2.770042-6.352783 5.311156-12.831478c10.816901-27.471496 37.910664-45.167717 67.534093-45.167717h57.381087a24.380952 24.380952 0 0 0 24.426738-24.380953z m-512.045786 73.119964a146.285714 146.285714 0 1 1 146.285714-146.285714 146.285714 146.285714 0 0 1-146.285714 146.285714z" p-id="2065"></path></svg>