<?xml version="1.0" standalone="no"?><!DOCTYPE svg PUBLIC "-//W3C//DTD SVG 1.1//EN" "http://www.w3.org/Graphics/SVG/1.1/DTD/svg11.dtd"><svg t="1713283453689" class="icon" viewBox="0 0 1024 1024" version="1.1" xmlns="http://www.w3.org/2000/svg" p-id="1321" xmlns:xlink="http://www.w3.org/1999/xlink" width="200" height="200"><path d="M820.77013333 102.4A100.82986667 100.82986667 0 0 1 921.6 203.22986667v617.54026666A100.82986667 100.82986667 0 0 1 820.77013333 921.6H203.22986667A100.82986667 100.82986667 0 0 1 102.4 820.77013333V203.22986667A100.82986667 100.82986667 0 0 1 203.22986667 102.4h617.54026666zM474.18026667 178.00533333H203.22986667a25.1904 25.1904 0 0 0-24.71253334 20.13866667l-0.512 5.08586667v617.54026666c0 11.94666667 8.3968 22.28906667 20.13866667 24.71253334l5.08586667 0.512h270.9504V178.00533333z m346.58986666 0h-270.9504v667.98933334h270.9504c11.94666667 0 22.28906667-8.3968 24.71253334-20.13866667l0.512-5.08586667V203.22986667a25.1904 25.1904 0 0 0-20.13866667-24.71253334l-5.08586667-0.512z" p-id="1322"></path><path d="M439.18222222 293.54666667q0 36.40888889-42.48917333 36.40888888H226.80917333Q184.32 329.95555555 184.32 293.54666667t42.48917333-36.40888889h169.88387556Q439.18222222 257.13777778 439.18222222 293.54666667zM839.68 293.54666667q0 36.40888889-42.48917333 36.40888888h-169.88387556Q584.81777778 329.95555555 584.81777778 293.54666667t42.48917333-36.40888889h169.88387556Q839.68 257.13777778 839.68 293.54666667zM366.36444445 475.59111111q0 36.40888889-45.51111112 36.40888889h-91.02222222Q184.32 512 184.32 475.59111111t45.51111111-36.40888889h91.02222222Q366.36444445 439.18222222 366.36444445 475.59111111zM766.86222222 475.59111111q0 36.40888889-45.51111111 36.40888889h-91.02222222Q584.81777778 512 584.81777778 475.59111111t45.51111111-36.40888889h91.02222222Q766.86222222 439.18222222 766.86222222 475.59111111z" p-id="1323"></path></svg>