<?xml version="1.0" standalone="no"?><!DOCTYPE svg PUBLIC "-//W3C//DTD SVG 1.1//EN" "http://www.w3.org/Graphics/SVG/1.1/DTD/svg11.dtd"><svg t="1716047742044" class="icon" viewBox="0 0 1024 1024" version="1.1" xmlns="http://www.w3.org/2000/svg" p-id="1781" xmlns:xlink="http://www.w3.org/1999/xlink" width="200" height="200"><path d="M469.25 246.17857168c0-22.56428584 18.38571416-40.88571416 41.07857168-40.88571416 22.62857168 0 41.01428584 18.32142832 41.01428584 40.88571416v245.44285664h164.25a40.95 40.95 0 1 1 0 81.7714292H510.32857168a40.95 40.95 0 0 1-41.14285752-40.88571504V246.17857168zM511.87142832 962A449.48571416 449.48571416 0 0 1 96.39285752 683.64285752C94.20714248 678.5 85.65714248 662.17142832 83.66428584 654.45714248c-1.92857168-7.71428584-4.5-19.47857168-4.75714336-20.57142832a43.07142832 43.07142832 0 0 1 42.3-41.07857168c20.44285752 0 31.82142832 10.73571416 40.43571504 34.65 0.77142833 2.18571416 5.14285752 11.76428584 6.10714248 14.33571504a368.67857168 368.67857168 0 0 0 713.63571416-130.37142919 368.87142832 368.87142832 0 0 0-728.35714249-82.02857081c-18.32142832 29.7-35.03571416 44.48571416-50.14285751 44.48571416A40.95 40.95 0 0 1 62 432.99285752l0.38571416-290.1214292a40.88571416 40.88571416 0 1 1 81.83571417 1e-8l-0.12857081 110.25A448.97142832 448.97142832 0 0 1 511.87142832 62a450 450 0 1 1 0 900z" p-id="1782"></path></svg>