<?xml version="1.0" standalone="no"?><!DOCTYPE svg PUBLIC "-//W3C//DTD SVG 1.1//EN" "http://www.w3.org/Graphics/SVG/1.1/DTD/svg11.dtd"><svg t="1628235402227" class="icon" viewBox="0 0 1024 1024" version="1.1" xmlns="http://www.w3.org/2000/svg" p-id="2030" xmlns:xlink="http://www.w3.org/1999/xlink" width="200" height="200"><defs><style type="text/css"></style></defs><path d="M512 0C229.376 0 0 229.376 0 512s229.376 512 512 512 512-229.376 512-512S794.624 0 512 0z m248.32 558.592c0 3.584-1.536 6.656-4.096 9.216s-6.144 4.096-9.216 4.096H276.48c-3.584 0-6.656-1.536-9.216-4.096s-4.096-6.144-4.096-9.216V465.408c0-3.584 1.024-6.656 4.096-9.216 2.56-2.56 6.144-4.096 9.216-4.096h471.04c3.584 0 6.656 1.024 9.216 4.096 2.56 2.56 4.096 6.144 4.096 9.216v93.184h-0.512z" p-id="2031"></path></svg>