<?xml version="1.0" standalone="no"?><!DOCTYPE svg PUBLIC "-//W3C//DTD SVG 1.1//EN" "http://www.w3.org/Graphics/SVG/1.1/DTD/svg11.dtd"><svg t="1628312819510" class="icon" viewBox="0 0 1024 1024" version="1.1" xmlns="http://www.w3.org/2000/svg" p-id="4413" xmlns:xlink="http://www.w3.org/1999/xlink" width="200" height="200"><defs><style type="text/css"></style></defs><path d="M675 744.8c-49.4 34.6-107.2 52-166.3 51.2-7.8-0.1-15.6-0.5-23.2-1.2-3.1-0.3-6.3-0.8-9.4-1.2-6-0.8-12-1.6-17.9-2.8-3.6-0.7-7.2-1.6-10.7-2.5-5.7-1.3-11.5-2.7-17.1-4.4-2.7-0.8-5.3-1.8-8-2.7-6.5-2.2-12.9-4.4-19.2-7l-4.2-1.9c-7.3-3.2-14.6-6.6-21.6-10.4l-0.9-0.5c-23.8-13-45.5-29.3-64.6-48.3l-0.9-1c-5.9-6-11.6-12.1-16.9-18.6l-3.3-4.3c-38.8-48.5-62.3-110.1-62.3-177h74.8l-120-179.3L63.6 512.2h74.8c0 78.6 24.5 151.5 66.2 211.8l1.4 2.6c4.3 6.2 9.1 11.8 13.7 17.7l5.1 6.6c6.8 8.3 14 16 21.5 23.6l2.1 2.2c25 25 53.3 46.1 84 63l2.5 1.4c8.9 4.8 17.9 9.1 27.2 13.1l6.8 3.1c7.9 3.3 16 6.1 24.2 8.8 3.8 1.3 7.7 2.7 11.6 3.9 7.1 2.1 14.4 3.9 21.8 5.6 4.9 1.1 9.7 2.4 14.7 3.3l6 1.4c6.9 1.2 13.9 1.9 20.8 2.7l7.5 1c12.4 1.2 24.9 2 37.3 2 76 0 150-23.2 213.7-67.8 20.3-14.2 25.2-42.1 11-62.5-14.2-20.2-42.3-25.1-62.5-10.9z m210.8-232.6c0-78.4-24.4-151.1-65.9-211.3l-1.7-3c-5.1-7.3-10.8-14.2-16.3-21.1l-2-2.5c-37.9-46-85.6-81.6-139.4-104.8l-4.4-2c-8.6-3.6-17.4-6.7-26.3-9.6-3.2-1.1-6.3-2.2-9.6-3.2-7.7-2.3-15.6-4.2-23.5-6-4.4-1-8.7-2.1-13.2-3l-6.4-1.4c-5.9-1-11.8-1.5-17.7-2.2-4.1-0.5-8.1-1.2-12.2-1.6-9.9-0.9-19.8-1.3-29.6-1.5l-5.3-0.3-1 0.1c-75.9 0.1-149.8 22.9-213.4 67.5-20.3 14.2-25.2 42.1-11 62.5s42.1 25.2 62.5 11c49-34.3 106.3-51.8 165-51.3 8.4 0.1 16.7 0.5 24.9 1.3l7.5 1c6.7 0.8 13.4 1.8 20 3.1 2.9 0.6 5.8 1.3 8.6 2 6.5 1.5 12.9 3 19.2 4.9l6 2c7.2 2.4 14.3 4.9 21.3 7.8l2.1 0.9c41.7 18 78.5 45.6 107 80.3l0.5 0.7c40.2 49 64.5 111.7 64.6 179.9h-74.8l119.6 179.4 119.7-179.5h-74.8z" p-id="4414"></path></svg>